# Blender v3.1.2 OBJ File: 'angled04.blend'
# www.blender.org
mtllib custom2.mtl
o Cube.004
v -0.500000 -0.500000 0.500000
v 0.000000 0.000000 0.000000
v 0.500000 -0.500000 -0.500000
v -0.500000 0.500000 -0.500000
v -0.500000 -0.500000 -0.500000
v 0.500000 -0.500000 -0.500000
v 0.500000 -0.500000 -0.500000
v 0.500000 -0.500000 -0.500000
v -0.500000 0.500000 -0.500000
v -0.500000 0.500000 -0.500000
v -0.500000 0.500000 -0.500000
v -0.500000 -0.500000 0.500000
v -0.500000 -0.500000 0.500000
v -0.500000 -0.500000 0.500000
v 0.000000 0.000000 0.000000
v 0.000000 0.000000 0.000000
v -0.500000 -0.500000 -0.500000
v -0.500000 -0.500000 -0.500000
vt 0.000059 0.999941
vt 0.000060 0.000059
vt 0.353571 0.500000
vt 1.000000 1.000000
vt 0.000000 0.000000
vt 1.000000 0.000000
vt 0.000000 1.000000
vt 1.000000 0.000000
vt 1.000000 1.000000
vt 1.000000 0.999929
vt 0.500071 0.500000
vt 1.000000 0.000071
vt 0.000060 0.999941
vt 0.000059 0.000059
vt 0.353571 0.500000
vt 0.000060 0.000059
vt 0.000060 0.999941
vt 0.353571 0.500000
vn 0.3667 0.6551 0.6606
vn 0.4772 0.1671 0.8628
vn 0.4147 -0.3897 0.8223
vn -0.8495 -0.4307 -0.3048
vn -0.7820 -0.6104 -0.1259
vn -1.0000 0.0000 0.0000
vn 0.0000 0.0000 -1.0000
vn -0.4307 -0.8495 -0.3048
vn 0.0000 -1.0000 -0.0000
vn -0.3185 -0.6578 -0.6826
vn -0.1297 0.1219 0.9840
vn 0.6551 0.3667 0.6606
vn -0.3897 0.4147 0.8223
vn 0.2550 0.6887 -0.6788
vn 0.8520 0.2540 0.4579
vn 0.6185 0.6185 -0.4847
usemtl Material.003
s 1
f 12/1/1 7/2/2 15/3/3
f 13/4/4 10/5/5 17/6/6
f 9/7/7 6/8/7 18/9/7
f 14/10/8 5/11/9 3/12/10
f 11/13/11 1/14/12 16/15/13
f 8/16/14 4/17/15 2/18/16
